<svg xmlns="http://www.w3.org/2000/svg" width="64" height="64" viewBox="0 0 64 64" role="img" aria-label="Leaf">
  <!-- Generated by scripts/favicon.py - do not hand-edit. -->
  <path d="M32.00 60.00 L34.84 59.37 L37.03 58.74 L38.98 58.11 L40.74 57.48 L42.37 56.85 L43.88 56.22 L45.28 55.60 L46.59 54.97 L47.81 54.34 L48.95 53.71 L50.01 53.08 L50.99 52.45 L51.91 51.82 L52.76 51.19 L53.54 50.56 L54.27 49.93 L54.93 49.30 L55.54 48.67 L56.10 48.04 L56.60 47.42 L57.05 46.79 L57.45 46.16 L57.80 45.53 L58.10 44.90 L58.36 44.27 L58.58 43.64 L58.75 43.01 L58.88 42.38 L58.97 41.75 L59.03 41.12 L59.04 40.49 L59.02 39.87 L58.96 39.24 L58.87 38.61 L58.74 37.98 L58.58 37.35 L58.39 36.72 L58.17 36.09 L57.92 35.46 L57.64 34.83 L57.33 34.20 L57.00 33.57 L56.64 32.94 L56.26 32.31 L55.86 31.69 L55.43 31.06 L54.98 30.43 L54.51 29.80 L54.02 29.17 L53.51 28.54 L52.99 27.91 L52.45 27.28 L51.89 26.65 L51.32 26.02 L50.73 25.39 L50.13 24.76 L49.52 24.13 L48.90 23.51 L48.27 22.88 L47.64 22.25 L46.99 21.62 L46.34 20.99 L45.69 20.36 L45.03 19.73 L44.36 19.10 L43.70 18.47 L43.04 17.84 L42.38 17.21 L41.72 16.58 L41.06 15.96 L40.41 15.33 L39.77 14.70 L39.13 14.07 L38.51 13.44 L37.89 12.81 L37.29 12.18 L36.71 11.55 L36.14 10.92 L35.60 10.29 L35.07 9.66 L34.57 9.03 L34.10 8.40 L33.66 7.78 L33.25 7.15 L32.88 6.52 L32.56 5.89 L32.30 5.26 L32.10 4.63 L32.00 4.00 L32.00 4.00 L31.90 4.63 L31.70 5.26 L31.44 5.89 L31.12 6.52 L30.75 7.15 L30.34 7.78 L29.90 8.40 L29.43 9.03 L28.93 9.66 L28.40 10.29 L27.86 10.92 L27.29 11.55 L26.71 12.18 L26.11 12.81 L25.49 13.44 L24.87 14.07 L24.23 14.70 L23.59 15.33 L22.94 15.96 L22.28 16.58 L21.62 17.21 L20.96 17.84 L20.30 18.47 L19.64 19.10 L18.97 19.73 L18.31 20.36 L17.66 20.99 L17.01 21.62 L16.36 22.25 L15.73 22.88 L15.10 23.51 L14.48 24.13 L13.87 24.76 L13.27 25.39 L12.68 26.02 L12.11 26.65 L11.55 27.28 L11.01 27.91 L10.49 28.54 L9.98 29.17 L9.49 29.80 L9.02 30.43 L8.57 31.06 L8.14 31.69 L7.74 32.31 L7.36 32.94 L7.00 33.57 L6.67 34.20 L6.36 34.83 L6.08 35.46 L5.83 36.09 L5.61 36.72 L5.42 37.35 L5.26 37.98 L5.13 38.61 L5.04 39.24 L4.98 39.87 L4.96 40.49 L4.97 41.12 L5.03 41.75 L5.12 42.38 L5.25 43.01 L5.42 43.64 L5.64 44.27 L5.90 44.90 L6.20 45.53 L6.55 46.16 L6.95 46.79 L7.40 47.42 L7.90 48.04 L8.46 48.67 L9.07 49.30 L9.73 49.93 L10.46 50.56 L11.24 51.19 L12.09 51.82 L13.01 52.45 L13.99 53.08 L15.05 53.71 L16.19 54.34 L17.41 54.97 L18.72 55.60 L20.12 56.22 L21.63 56.85 L23.26 57.48 L25.02 58.11 L26.97 58.74 L29.16 59.37 L32.00 60.00 Z" fill="#235c39"/>
  <path d="M32 15.20 L32 56.64" stroke="#8fd0a6" stroke-width="3.2" stroke-linecap="round"/>
</svg>
